<?xml version="1.0" encoding="utf-8"?>
<!-- Generator: Adobe Illustrator 16.0.0, SVG Export Plug-In . SVG Version: 6.00 Build 0)  -->
<!DOCTYPE svg PUBLIC "-//W3C//DTD SVG 1.1//EN" "http://www.w3.org/Graphics/SVG/1.1/DTD/svg11.dtd">
<svg version="1.1" id="Lager_1" xmlns="http://www.w3.org/2000/svg" xmlns:xlink="http://www.w3.org/1999/xlink" x="0px" y="0px"
	 width="56.69px" height="56.69px" viewBox="0 0 56.69 56.69" enable-background="new 0 0 56.69 56.69" xml:space="preserve">
<g opacity="0.7">
	<path fill="#FFFFFF" d="M33.851,19.766c-1.747-0.1-3.077,0.214-3.981,0.954c-0.913,0.739-1.406,1.812-1.486,3.21
		c-0.039,0.679,0.036,1.304,0.233,1.876c0.043,0.123,0.086,0.235,0.14,0.349c0.185,0.432,0.444,0.817,0.775,1.157
		c0.416,0.434,0.938,0.774,1.572,1.042c0.637,0.257,1.379,0.41,2.228,0.458l3.534,0.203l0.52-9.045L33.851,19.766z M33.851,19.766
		c-1.747-0.1-3.077,0.214-3.981,0.954c-0.913,0.739-1.406,1.812-1.486,3.21c-0.039,0.679,0.036,1.304,0.233,1.876
		c0.043,0.123,0.086,0.235,0.14,0.349c0.185,0.432,0.444,0.817,0.775,1.157c0.416,0.434,0.938,0.774,1.572,1.042
		c0.637,0.257,1.379,0.41,2.228,0.458l3.534,0.203l0.52-9.045L33.851,19.766z M33.851,19.766c-1.747-0.1-3.077,0.214-3.981,0.954
		c-0.913,0.739-1.406,1.812-1.486,3.21c-0.039,0.679,0.036,1.304,0.233,1.876c0.043,0.123,0.086,0.235,0.14,0.349
		c0.185,0.432,0.444,0.817,0.775,1.157c0.416,0.434,0.938,0.774,1.572,1.042c0.637,0.257,1.379,0.41,2.228,0.458l3.534,0.203
		l0.52-9.045L33.851,19.766z M33.851,19.766c-1.747-0.1-3.077,0.214-3.981,0.954c-0.913,0.739-1.406,1.812-1.486,3.21
		c-0.039,0.679,0.036,1.304,0.233,1.876c0.043,0.123,0.086,0.235,0.14,0.349c0.185,0.432,0.444,0.817,0.775,1.157
		c0.416,0.434,0.938,0.774,1.572,1.042c0.637,0.257,1.379,0.41,2.228,0.458l3.534,0.203l0.52-9.045L33.851,19.766z M33.851,19.766
		c-1.747-0.1-3.077,0.214-3.981,0.954c-0.913,0.739-1.406,1.812-1.486,3.21c-0.039,0.679,0.036,1.304,0.233,1.876
		c0.043,0.123,0.086,0.235,0.14,0.349c0.185,0.432,0.444,0.817,0.775,1.157c0.416,0.434,0.938,0.774,1.572,1.042
		c0.637,0.257,1.379,0.41,2.228,0.458l3.534,0.203l0.52-9.045L33.851,19.766z M33.851,19.766c-1.747-0.1-3.077,0.214-3.981,0.954
		c-0.913,0.739-1.406,1.812-1.486,3.21c-0.039,0.679,0.036,1.304,0.233,1.876c0.043,0.123,0.086,0.235,0.14,0.349
		c0.185,0.432,0.444,0.817,0.775,1.157c0.416,0.434,0.938,0.774,1.572,1.042c0.637,0.257,1.379,0.41,2.228,0.458l3.534,0.203
		l0.52-9.045L33.851,19.766z M33.851,19.766c-1.747-0.1-3.077,0.214-3.981,0.954c-0.913,0.739-1.406,1.812-1.486,3.21
		c-0.039,0.679,0.036,1.304,0.233,1.876c0.043,0.123,0.086,0.235,0.14,0.349c0.185,0.432,0.444,0.817,0.775,1.157
		c0.416,0.434,0.938,0.774,1.572,1.042c0.637,0.257,1.379,0.41,2.228,0.458l3.534,0.203l0.52-9.045L33.851,19.766z M33.851,19.766
		c-1.747-0.1-3.077,0.214-3.981,0.954c-0.913,0.739-1.406,1.812-1.486,3.21c-0.039,0.679,0.036,1.304,0.233,1.876
		c0.043,0.123,0.086,0.235,0.14,0.349c0.185,0.432,0.444,0.817,0.775,1.157c0.416,0.434,0.938,0.774,1.572,1.042
		c0.637,0.257,1.379,0.41,2.228,0.458l3.534,0.203l0.52-9.045L33.851,19.766z M33.851,19.766c-1.747-0.1-3.077,0.214-3.981,0.954
		c-0.913,0.739-1.406,1.812-1.486,3.21c-0.039,0.679,0.036,1.304,0.233,1.876c0.043,0.123,0.086,0.235,0.14,0.349
		c0.185,0.432,0.444,0.817,0.775,1.157c0.416,0.434,0.938,0.774,1.572,1.042c0.637,0.257,1.379,0.41,2.228,0.458l3.534,0.203
		l0.52-9.045L33.851,19.766z M33.851,19.766c-1.747-0.1-3.077,0.214-3.981,0.954c-0.913,0.739-1.406,1.812-1.486,3.21
		c-0.039,0.679,0.036,1.304,0.233,1.876c0.043,0.123,0.086,0.235,0.14,0.349c0.185,0.432,0.444,0.817,0.775,1.157
		c0.416,0.434,0.938,0.774,1.572,1.042c0.637,0.257,1.379,0.41,2.228,0.458l3.534,0.203l0.52-9.045L33.851,19.766z M49.771,25.098
		c-0.01-0.011-0.009-0.021-0.008-0.031c0.037-3.974-0.396-7.755-1.348-10.905c-1.429-4.94-4.097-8.369-7.839-9.836
		c-1.794-0.694-3.832-0.951-6.101-0.691c-6.699,0.657-13.671,4.694-19.036,8.633c-0.229,0.157-0.459,0.324-0.679,0.492
		C9.249,17,5.567,20.936,4.532,24.493c-0.51,1.734-0.402,3.333,0.197,4.95c-0.001,0.01-0.001,0.01-0.001,0.01
		c0.651,1.75,1.871,3.522,3.51,5.5c1.971,2.317,4.536,4.909,7.507,7.594c0,0,0,0,0.01,0c1.81,1.637,3.768,3.292,5.837,4.933
		c5.536,4.254,10.641,7.272,15.133,6.488c1.627-0.247,3.183-1.009,4.61-2.3c2.49-2.22,4.623-6.034,6.22-11.512
		C48.946,35.457,49.723,30.133,49.771,25.098z M19.33,16.578l2.975,0.17l-1.119,19.478L36.4,37.101l0.329-5.721l-3.534-0.203
		c-1.317-0.076-2.476-0.312-3.484-0.721c-0.999-0.397-1.83-0.927-2.484-1.575c-0.53-0.531-0.937-1.125-1.239-1.793
		c-0.071-0.165-0.142-0.329-0.202-0.493c-0.311-0.869-0.437-1.818-0.378-2.836c0.059-1.028,0.282-1.957,0.66-2.776
		c0.377-0.82,0.928-1.509,1.631-2.06c0.713-0.56,1.588-0.971,2.635-1.231c1.047-0.26,2.264-0.351,3.651-0.271l6.489,0.373
		l-1.263,21.984l-21.145-1.215L19.33,16.578z M37.385,19.969l-3.534-0.203c-1.747-0.1-3.077,0.214-3.981,0.954
		c-0.913,0.739-1.406,1.812-1.486,3.21c-0.039,0.679,0.036,1.304,0.233,1.876c0.043,0.123,0.086,0.235,0.14,0.349
		c0.185,0.432,0.444,0.817,0.775,1.157c0.416,0.434,0.938,0.774,1.572,1.042c0.637,0.257,1.379,0.41,2.228,0.458l3.534,0.203
		L37.385,19.969z M33.851,19.766c-1.747-0.1-3.077,0.214-3.981,0.954c-0.913,0.739-1.406,1.812-1.486,3.21
		c-0.039,0.679,0.036,1.304,0.233,1.876c0.043,0.123,0.086,0.235,0.14,0.349c0.185,0.432,0.444,0.817,0.775,1.157
		c0.416,0.434,0.938,0.774,1.572,1.042c0.637,0.257,1.379,0.41,2.228,0.458l3.534,0.203l0.52-9.045L33.851,19.766z M33.851,19.766
		c-1.747-0.1-3.077,0.214-3.981,0.954c-0.913,0.739-1.406,1.812-1.486,3.21c-0.039,0.679,0.036,1.304,0.233,1.876
		c0.043,0.123,0.086,0.235,0.14,0.349c0.185,0.432,0.444,0.817,0.775,1.157c0.416,0.434,0.938,0.774,1.572,1.042
		c0.637,0.257,1.379,0.41,2.228,0.458l3.534,0.203l0.52-9.045L33.851,19.766z M33.851,19.766c-1.747-0.1-3.077,0.214-3.981,0.954
		c-0.913,0.739-1.406,1.812-1.486,3.21c-0.039,0.679,0.036,1.304,0.233,1.876c0.043,0.123,0.086,0.235,0.14,0.349
		c0.185,0.432,0.444,0.817,0.775,1.157c0.416,0.434,0.938,0.774,1.572,1.042c0.637,0.257,1.379,0.41,2.228,0.458l3.534,0.203
		l0.52-9.045L33.851,19.766z M33.851,19.766c-1.747-0.1-3.077,0.214-3.981,0.954c-0.913,0.739-1.406,1.812-1.486,3.21
		c-0.039,0.679,0.036,1.304,0.233,1.876c0.043,0.123,0.086,0.235,0.14,0.349c0.185,0.432,0.444,0.817,0.775,1.157
		c0.416,0.434,0.938,0.774,1.572,1.042c0.637,0.257,1.379,0.41,2.228,0.458l3.534,0.203l0.52-9.045L33.851,19.766z M33.851,19.766
		c-1.747-0.1-3.077,0.214-3.981,0.954c-0.913,0.739-1.406,1.812-1.486,3.21c-0.039,0.679,0.036,1.304,0.233,1.876
		c0.043,0.123,0.086,0.235,0.14,0.349c0.185,0.432,0.444,0.817,0.775,1.157c0.416,0.434,0.938,0.774,1.572,1.042
		c0.637,0.257,1.379,0.41,2.228,0.458l3.534,0.203l0.52-9.045L33.851,19.766z M33.851,19.766c-1.747-0.1-3.077,0.214-3.981,0.954
		c-0.913,0.739-1.406,1.812-1.486,3.21c-0.039,0.679,0.036,1.304,0.233,1.876c0.043,0.123,0.086,0.235,0.14,0.349
		c0.185,0.432,0.444,0.817,0.775,1.157c0.416,0.434,0.938,0.774,1.572,1.042c0.637,0.257,1.379,0.41,2.228,0.458l3.534,0.203
		l0.52-9.045L33.851,19.766z M33.851,19.766c-1.747-0.1-3.077,0.214-3.981,0.954c-0.913,0.739-1.406,1.812-1.486,3.21
		c-0.039,0.679,0.036,1.304,0.233,1.876c0.043,0.123,0.086,0.235,0.14,0.349c0.185,0.432,0.444,0.817,0.775,1.157
		c0.416,0.434,0.938,0.774,1.572,1.042c0.637,0.257,1.379,0.41,2.228,0.458l3.534,0.203l0.52-9.045L33.851,19.766z M33.851,19.766
		c-1.747-0.1-3.077,0.214-3.981,0.954c-0.913,0.739-1.406,1.812-1.486,3.21c-0.039,0.679,0.036,1.304,0.233,1.876
		c0.043,0.123,0.086,0.235,0.14,0.349c0.185,0.432,0.444,0.817,0.775,1.157c0.416,0.434,0.938,0.774,1.572,1.042
		c0.637,0.257,1.379,0.41,2.228,0.458l3.534,0.203l0.52-9.045L33.851,19.766z M33.851,19.766c-1.747-0.1-3.077,0.214-3.981,0.954
		c-0.913,0.739-1.406,1.812-1.486,3.21c-0.039,0.679,0.036,1.304,0.233,1.876c0.043,0.123,0.086,0.235,0.14,0.349
		c0.185,0.432,0.444,0.817,0.775,1.157c0.416,0.434,0.938,0.774,1.572,1.042c0.637,0.257,1.379,0.41,2.228,0.458l3.534,0.203
		l0.52-9.045L33.851,19.766z M33.851,19.766c-1.747-0.1-3.077,0.214-3.981,0.954c-0.913,0.739-1.406,1.812-1.486,3.21
		c-0.039,0.679,0.036,1.304,0.233,1.876c0.043,0.123,0.086,0.235,0.14,0.349c0.185,0.432,0.444,0.817,0.775,1.157
		c0.416,0.434,0.938,0.774,1.572,1.042c0.637,0.257,1.379,0.41,2.228,0.458l3.534,0.203l0.52-9.045L33.851,19.766z"/>
	<path fill="#FFFFFF" d="M40.326,20.368l-0.47,8.187l2.254-7.664L40.326,20.368z M25.625,38.996l6.57,1.93l2.994,0.883l0.709,0.212
		l0.709-2.395L25.625,38.996z M33.195,31.177c-1.317-0.076-2.476-0.312-3.484-0.721c-0.999-0.397-1.83-0.927-2.484-1.575
		c-0.53-0.531-0.937-1.125-1.239-1.793c0.148,0.559,0.388,1.094,0.699,1.603c0.486,0.789,1.177,1.49,2.063,2.101
		c0.885,0.622,1.969,1.115,3.23,1.488l3.398,0.997l-1.095,3.703l2.116,0.121l0.329-5.721L33.195,31.177z M36.626,29l0.239,0.014
		l0.059-1.018L36.626,29z M33.851,19.766c-1.747-0.1-3.077,0.214-3.981,0.954c-0.913,0.739-1.406,1.812-1.486,3.21
		c-0.039,0.679,0.036,1.304,0.233,1.876c0.043,0.123,0.086,0.235,0.14,0.349c-0.008-0.041-0.015-0.091-0.022-0.141
		c-0.056-0.604,0.011-1.231,0.198-1.882c0.397-1.35,1.122-2.279,2.174-2.791c1.051-0.51,2.414-0.522,4.098-0.024l2.068,0.609
		l0.112-1.957L33.851,19.766z M21.25,35.108l-0.064,1.118l4.842,0.278L21.25,35.108z M24.646,15.762l-2.866-0.846l-0.522,1.772
		l1.048,0.06l-0.498,8.676L24.646,15.762z M15.578,36.045l2.59,0.76l0.685-11.92L15.578,36.045z"/>
</g>
<g>
	<path fill="#FFFFFF" d="M33.35,19.38c-1.75,0-3.06,0.39-3.92,1.18c-0.87,0.79-1.3,1.89-1.3,3.29c0,0.68,0.11,1.3,0.34,1.86
		c0.05,0.12,0.1,0.23,0.16,0.34c0.21,0.42,0.49,0.79,0.84,1.11c0.44,0.41,0.98,0.72,1.63,0.95c0.65,0.22,1.4,0.33,2.25,0.33h3.54
		v-9.06H33.35z M33.35,19.38c-1.75,0-3.06,0.39-3.92,1.18c-0.87,0.79-1.3,1.89-1.3,3.29c0,0.68,0.11,1.3,0.34,1.86
		c0.05,0.12,0.1,0.23,0.16,0.34c0.21,0.42,0.49,0.79,0.84,1.11c0.44,0.41,0.98,0.72,1.63,0.95c0.65,0.22,1.4,0.33,2.25,0.33h3.54
		v-9.06H33.35z M33.35,19.38c-1.75,0-3.06,0.39-3.92,1.18c-0.87,0.79-1.3,1.89-1.3,3.29c0,0.68,0.11,1.3,0.34,1.86
		c0.05,0.12,0.1,0.23,0.16,0.34c0.21,0.42,0.49,0.79,0.84,1.11c0.44,0.41,0.98,0.72,1.63,0.95c0.65,0.22,1.4,0.33,2.25,0.33h3.54
		v-9.06H33.35z M33.35,19.38c-1.75,0-3.06,0.39-3.92,1.18c-0.87,0.79-1.3,1.89-1.3,3.29c0,0.68,0.11,1.3,0.34,1.86
		c0.05,0.12,0.1,0.23,0.16,0.34c0.21,0.42,0.49,0.79,0.84,1.11c0.44,0.41,0.98,0.72,1.63,0.95c0.65,0.22,1.4,0.33,2.25,0.33h3.54
		v-9.06H33.35z M33.35,19.38c-1.75,0-3.06,0.39-3.92,1.18c-0.87,0.79-1.3,1.89-1.3,3.29c0,0.68,0.11,1.3,0.34,1.86
		c0.05,0.12,0.1,0.23,0.16,0.34c0.21,0.42,0.49,0.79,0.84,1.11c0.44,0.41,0.98,0.72,1.63,0.95c0.65,0.22,1.4,0.33,2.25,0.33h3.54
		v-9.06H33.35z M33.35,19.38c-1.75,0-3.06,0.39-3.92,1.18c-0.87,0.79-1.3,1.89-1.3,3.29c0,0.68,0.11,1.3,0.34,1.86
		c0.05,0.12,0.1,0.23,0.16,0.34c0.21,0.42,0.49,0.79,0.84,1.11c0.44,0.41,0.98,0.72,1.63,0.95c0.65,0.22,1.4,0.33,2.25,0.33h3.54
		v-9.06H33.35z M33.35,19.38c-1.75,0-3.06,0.39-3.92,1.18c-0.87,0.79-1.3,1.89-1.3,3.29c0,0.68,0.11,1.3,0.34,1.86
		c0.05,0.12,0.1,0.23,0.16,0.34c0.21,0.42,0.49,0.79,0.84,1.11c0.44,0.41,0.98,0.72,1.63,0.95c0.65,0.22,1.4,0.33,2.25,0.33h3.54
		v-9.06H33.35z M33.35,19.38c-1.75,0-3.06,0.39-3.92,1.18c-0.87,0.79-1.3,1.89-1.3,3.29c0,0.68,0.11,1.3,0.34,1.86
		c0.05,0.12,0.1,0.23,0.16,0.34c0.21,0.42,0.49,0.79,0.84,1.11c0.44,0.41,0.98,0.72,1.63,0.95c0.65,0.22,1.4,0.33,2.25,0.33h3.54
		v-9.06H33.35z M33.35,19.38c-1.75,0-3.06,0.39-3.92,1.18c-0.87,0.79-1.3,1.89-1.3,3.29c0,0.68,0.11,1.3,0.34,1.86
		c0.05,0.12,0.1,0.23,0.16,0.34c0.21,0.42,0.49,0.79,0.84,1.11c0.44,0.41,0.98,0.72,1.63,0.95c0.65,0.22,1.4,0.33,2.25,0.33h3.54
		v-9.06H33.35z M33.35,19.38c-1.75,0-3.06,0.39-3.92,1.18c-0.87,0.79-1.3,1.89-1.3,3.29c0,0.68,0.11,1.3,0.34,1.86
		c0.05,0.12,0.1,0.23,0.16,0.34c0.21,0.42,0.49,0.79,0.84,1.11c0.44,0.41,0.98,0.72,1.63,0.95c0.65,0.22,1.4,0.33,2.25,0.33h3.54
		v-9.06H33.35z M49.55,23.79c-0.01-0.01-0.01-0.02-0.01-0.03c-1.07-5.66-2.98-11.08-5.53-14.97c-1.42-2.23-3.04-3.99-4.83-5.21
		c-3.35-2.3-7.27-2.74-11.51-0.96c-4.95,2-9.46,6.09-13.13,10.33c-1.16,1.34-2.23,2.69-3.21,3.99c-3.95,5.43-6.36,10.11-6.5,13.77
		c0,0.01,0,0.01,0,0.01c-0.01,0.12-0.01,0.24-0.01,0.36c-0.01,3.76,2.41,6.229,6.51,8.99c1.53,1,3.3,2.029,5.25,3.09c0,0,0,0,0.01,0
		c3.25,1.75,7.02,3.52,11.08,5.16c5.811,2.25,11.03,3.66,14.98,2.479c0.47-0.13,0.93-0.31,1.359-0.52
		c4.09-1.92,6.521-7.32,6.51-16.311C50.52,30.68,50.18,27.19,49.55,23.79z M39.85,39.05H18.67V17.03h2.98v19.51h15.24v-5.73h-3.54
		c-1.319,0-2.489-0.17-3.52-0.52c-1.02-0.34-1.88-0.82-2.57-1.43c-0.56-0.5-1-1.07-1.34-1.72c-0.08-0.16-0.16-0.32-0.23-0.48
		c-0.36-0.85-0.54-1.79-0.54-2.81c0-1.03,0.17-1.97,0.5-2.81s0.84-1.56,1.51-2.15c0.68-0.6,1.53-1.06,2.56-1.38
		c1.03-0.32,2.24-0.48,3.63-0.48h6.5V39.05z M29.43,20.56c-0.87,0.79-1.3,1.89-1.3,3.29c0,0.68,0.11,1.3,0.34,1.86
		c0.05,0.12,0.1,0.23,0.16,0.34c0.21,0.42,0.49,0.79,0.84,1.11c0.44,0.41,0.98,0.72,1.63,0.95c0.65,0.22,1.4,0.33,2.25,0.33h3.54
		v-9.06h-3.54C31.6,19.38,30.29,19.77,29.43,20.56z M33.35,19.38c-1.75,0-3.06,0.39-3.92,1.18c-0.87,0.79-1.3,1.89-1.3,3.29
		c0,0.68,0.11,1.3,0.34,1.86c0.05,0.12,0.1,0.23,0.16,0.34c0.21,0.42,0.49,0.79,0.84,1.11c0.44,0.41,0.98,0.72,1.63,0.95
		c0.65,0.22,1.4,0.33,2.25,0.33h3.54v-9.06H33.35z M33.35,19.38c-1.75,0-3.06,0.39-3.92,1.18c-0.87,0.79-1.3,1.89-1.3,3.29
		c0,0.68,0.11,1.3,0.34,1.86c0.05,0.12,0.1,0.23,0.16,0.34c0.21,0.42,0.49,0.79,0.84,1.11c0.44,0.41,0.98,0.72,1.63,0.95
		c0.65,0.22,1.4,0.33,2.25,0.33h3.54v-9.06H33.35z M33.35,19.38c-1.75,0-3.06,0.39-3.92,1.18c-0.87,0.79-1.3,1.89-1.3,3.29
		c0,0.68,0.11,1.3,0.34,1.86c0.05,0.12,0.1,0.23,0.16,0.34c0.21,0.42,0.49,0.79,0.84,1.11c0.44,0.41,0.98,0.72,1.63,0.95
		c0.65,0.22,1.4,0.33,2.25,0.33h3.54v-9.06H33.35z M33.35,19.38c-1.75,0-3.06,0.39-3.92,1.18c-0.87,0.79-1.3,1.89-1.3,3.29
		c0,0.68,0.11,1.3,0.34,1.86c0.05,0.12,0.1,0.23,0.16,0.34c0.21,0.42,0.49,0.79,0.84,1.11c0.44,0.41,0.98,0.72,1.63,0.95
		c0.65,0.22,1.4,0.33,2.25,0.33h3.54v-9.06H33.35z M33.35,19.38c-1.75,0-3.06,0.39-3.92,1.18c-0.87,0.79-1.3,1.89-1.3,3.29
		c0,0.68,0.11,1.3,0.34,1.86c0.05,0.12,0.1,0.23,0.16,0.34c0.21,0.42,0.49,0.79,0.84,1.11c0.44,0.41,0.98,0.72,1.63,0.95
		c0.65,0.22,1.4,0.33,2.25,0.33h3.54v-9.06H33.35z M33.35,19.38c-1.75,0-3.06,0.39-3.92,1.18c-0.87,0.79-1.3,1.89-1.3,3.29
		c0,0.68,0.11,1.3,0.34,1.86c0.05,0.12,0.1,0.23,0.16,0.34c0.21,0.42,0.49,0.79,0.84,1.11c0.44,0.41,0.98,0.72,1.63,0.95
		c0.65,0.22,1.4,0.33,2.25,0.33h3.54v-9.06H33.35z M33.35,19.38c-1.75,0-3.06,0.39-3.92,1.18c-0.87,0.79-1.3,1.89-1.3,3.29
		c0,0.68,0.11,1.3,0.34,1.86c0.05,0.12,0.1,0.23,0.16,0.34c0.21,0.42,0.49,0.79,0.84,1.11c0.44,0.41,0.98,0.72,1.63,0.95
		c0.65,0.22,1.4,0.33,2.25,0.33h3.54v-9.06H33.35z M33.35,19.38c-1.75,0-3.06,0.39-3.92,1.18c-0.87,0.79-1.3,1.89-1.3,3.29
		c0,0.68,0.11,1.3,0.34,1.86c0.05,0.12,0.1,0.23,0.16,0.34c0.21,0.42,0.49,0.79,0.84,1.11c0.44,0.41,0.98,0.72,1.63,0.95
		c0.65,0.22,1.4,0.33,2.25,0.33h3.54v-9.06H33.35z M33.35,19.38c-1.75,0-3.06,0.39-3.92,1.18c-0.87,0.79-1.3,1.89-1.3,3.29
		c0,0.68,0.11,1.3,0.34,1.86c0.05,0.12,0.1,0.23,0.16,0.34c0.21,0.42,0.49,0.79,0.84,1.11c0.44,0.41,0.98,0.72,1.63,0.95
		c0.65,0.22,1.4,0.33,2.25,0.33h3.54v-9.06H33.35z M33.35,19.38c-1.75,0-3.06,0.39-3.92,1.18c-0.87,0.79-1.3,1.89-1.3,3.29
		c0,0.68,0.11,1.3,0.34,1.86c0.05,0.12,0.1,0.23,0.16,0.34c0.21,0.42,0.49,0.79,0.84,1.11c0.44,0.41,0.98,0.72,1.63,0.95
		c0.65,0.22,1.4,0.33,2.25,0.33h3.54v-9.06H33.35z"/>
</g>
</svg>
